<svg xmlns="http://www.w3.org/2000/svg" viewBox="0 0 64 64"><rect width="64" height="64" rx="14" fill="#0c1a2e"/><g transform="translate(6 8.500) scale(0.8125)"><g><ellipse cx="9" cy="19" rx="8" ry="7.5" fill="#7e6f5f"></ellipse><ellipse cx="55" cy="19" rx="8" ry="7.5" fill="#7e6f5f"></ellipse><ellipse cx="10" cy="20" rx="4.5" ry="4" fill="#efe7da"></ellipse><ellipse cx="54" cy="20" rx="4.5" ry="4" fill="#efe7da"></ellipse><path d="M32 6c14 0 26 8 27 22 .4 5-1 9-4 12l3 5-7-1.5C46 48 39.500 51 32 51s-14-3-19-7.500L6 45l3-5c-3-3-4.400-7-4-12C6 14 18 6 32 6Z" fill="#b9ad9c"></path><g fill="#4a3f36"><circle cx="26" cy="13" r="1.3"></circle><circle cx="32" cy="11.500" r="1.3"></circle><circle cx="38" cy="13" r="1.3"></circle><circle cx="29" cy="17" r="1.1"></circle><circle cx="35" cy="17" r="1.1"></circle></g><g fill="none" stroke="#4a3f36" stroke-width="1.8" stroke-linecap="round"><path d="M14 33c-3 1-5.500 2.500-7.500 4.500"></path><path d="M15 37.500c-2.500 1.200-4.500 2.800-6 4.800"></path><path d="M50 33c3 1 5.500 2.500 7.500 4.500"></path><path d="M49 37.500c2.500 1.200 4.500 2.800 6 4.800"></path></g><ellipse cx="21.500" cy="28" rx="8" ry="6.500" fill="#efe7da"></ellipse><ellipse cx="42.500" cy="28" rx="8" ry="6.500" fill="#efe7da"></ellipse><ellipse cx="32" cy="40" rx="9.500" ry="7" fill="#efe7da"></ellipse><circle cx="21.500" cy="29" r="5" fill="#e9d75a"></circle><circle cx="42.500" cy="29" r="5" fill="#e9d75a"></circle><circle cx="22.200" cy="29.500" r="2.300" fill="#16110d"></circle><circle cx="41.800" cy="29.500" r="2.300" fill="#16110d"></circle><circle cx="23" cy="28.600" r="0.700" fill="#fff"></circle><circle cx="42.600" cy="28.600" r="0.700" fill="#fff"></circle><path d="M14.500 24.500 28.500 27v-5.500h-14Z" fill="#b9ad9c"></path><path d="M49.500 24.500 35.500 27v-5.500h14Z" fill="#b9ad9c"></path><g fill="none" stroke="#16110d" stroke-width="1.8" stroke-linecap="round"><path d="M15 24.800 28 27.200"></path><path d="M49 24.800 36 27.200"></path></g><path d="M29.500 36.500h5l-2.500 3Z" fill="#9a6a61" stroke="#9a6a61" stroke-width="1" stroke-linejoin="round"></path><g fill="none" stroke="#4a3f36" stroke-width="1.400" stroke-linecap="round"><path d="M32 39.500v2.200"></path><path d="M32 41.700c-1.500 0-2.800.700-3.600 1.800"></path><path d="M32 41.700c1.500 0 2.800.700 3.600 1.800"></path></g></g></g></svg>
